<svg width="40" height="40" viewBox="0 0 40 40" fill="none" xmlns="http://www.w3.org/2000/svg">
<path d="M20.0001 3C8.9542 3 0 11.9542 0 23.0001C0 27.8133 1.70122 32.2294 4.53411 35.6804C4.97116 32.1809 8.46643 29.2211 13.3676 27.8195C15.1582 29.4878 17.4711 30.5001 19.9999 30.5001C22.4693 30.5001 24.7369 29.5388 26.5093 27.9404C31.4528 29.4646 34.873 32.5973 34.9854 36.2385C38.1034 32.7113 40 28.0784 40 23.0001C40 11.9542 31.0458 3 20.0001 3ZM20.0001 28.1316C18.7233 28.1316 17.5203 27.7808 16.452 27.1733C13.8777 25.7084 12.1052 22.7108 12.1052 19.2499C12.1052 14.3526 15.6467 10.3681 20.0001 10.3681C24.3538 10.3681 27.8949 14.3526 27.8949 19.2499C27.8949 22.7639 26.0669 25.7985 23.4286 27.238C22.3892 27.8047 21.2294 28.1316 20.0001 28.1316Z" fill="#D5D9DD"/>
</svg>
