<svg width="24" height="24" viewBox="0 0 24 24" fill="none" xmlns="http://www.w3.org/2000/svg">
<path d="M7.99832 21.0037V3.99666C7.99832 3.44415 8.44622 2.99625 8.99874 2.99625H15.0012C15.5538 2.99625 16.0017 3.44415 16.0017 3.99666V21.0037" stroke="#30353C" stroke-width="1.5" stroke-linecap="round" stroke-linejoin="round"/>
<path d="M21.0037 21.0038V7.91131C21.0037 7.40686 20.5948 6.99792 20.0904 6.99792H16.0016" stroke="#30353C" stroke-width="1.5" stroke-linecap="round" stroke-linejoin="round"/>
<path d="M7.99833 6.99792H3.90963C3.40518 6.99792 2.99625 7.40686 2.99625 7.91131V21.0038" stroke="#30353C" stroke-width="1.5" stroke-linecap="round" stroke-linejoin="round"/>
<path d="M16.0016 9.99917H18.5027" stroke="#30353C" stroke-width="1.5" stroke-linecap="round" stroke-linejoin="round"/>
<path d="M16.0016 13.0004H18.5027" stroke="#30353C" stroke-width="1.5" stroke-linecap="round" stroke-linejoin="round"/>
<path d="M16.0016 16.0017H18.5027" stroke="#30353C" stroke-width="1.5" stroke-linecap="round" stroke-linejoin="round"/>
<path d="M5.49728 9.99917H7.99833" stroke="#30353C" stroke-width="1.5" stroke-linecap="round" stroke-linejoin="round"/>
<path d="M5.49728 13.0004H7.99833" stroke="#30353C" stroke-width="1.5" stroke-linecap="round" stroke-linejoin="round"/>
<path d="M5.49728 16.0017H7.99833" stroke="#30353C" stroke-width="1.5" stroke-linecap="round" stroke-linejoin="round"/>
<path d="M10.4994 13.0004H13.5006" stroke="#30353C" stroke-width="1.5" stroke-linecap="round" stroke-linejoin="round"/>
<path d="M10.4994 16.0017H13.5006" stroke="#30353C" stroke-width="1.5" stroke-linecap="round" stroke-linejoin="round"/>
<path d="M10.4994 9.99917H13.5006" stroke="#30353C" stroke-width="1.5" stroke-linecap="round" stroke-linejoin="round"/>
<path d="M10.4994 6.99792H13.5006" stroke="#30353C" stroke-width="1.5" stroke-linecap="round" stroke-linejoin="round"/>
<path d="M12 19.0029V21.0037" stroke="#30353C" stroke-width="1.5" stroke-linecap="round" stroke-linejoin="round"/>
<path d="M22.0042 21.0037H1.99582" stroke="#30353C" stroke-width="1.5" stroke-linecap="round" stroke-linejoin="round"/>
</svg>
