<?xml version="1.0" standalone="no"?>
<!DOCTYPE svg PUBLIC "-//W3C//DTD SVG 20010904//EN"
 "http://www.w3.org/TR/2001/REC-SVG-20010904/DTD/svg10.dtd">
<svg version="1.0" xmlns="http://www.w3.org/2000/svg"
 width="512.000000pt" height="512.000000pt" viewBox="0 0 512.000000 512.000000"
 preserveAspectRatio="xMidYMid meet">

<g transform="translate(0.000000,512.000000) scale(0.100000,-0.100000)"
fill="#000000" stroke="none">
<path d="M1343 4650 c-272 -71 -462 -307 -463 -575 l-1 -70 -77 -37 c-128 -61
-223 -154 -287 -280 -69 -138 -66 -73 -63 -1478 l3 -1265 22 -65 c65 -190 220
-343 408 -403 l70 -22 1605 0 1605 0 70 22 c188 60 343 213 408 403 l22 65 3
945 c3 1050 5 1023 -63 1158 -64 126 -158 218 -287 280 l-77 37 -3 415 c-4
406 -4 416 -27 479 -54 145 -177 282 -316 350 -126 62 -89 61 -1340 60 -1084
0 -1144 -1 -1212 -19z m2358 -375 c64 -23 108 -62 135 -119 24 -51 24 -53 24
-408 l0 -358 -598 0 -599 0 -164 246 c-178 269 -231 327 -329 367 -54 21 -66
22 -482 25 l-428 3 0 37 c0 52 41 134 84 167 74 56 21 54 1212 55 961 0 1107
-2 1145 -15z m-1501 -879 c181 -270 211 -304 316 -353 l59 -28 770 -5 c576 -4
777 -8 797 -17 16 -7 48 -31 72 -53 80 -74 76 -20 76 -1018 0 -655 -3 -895
-12 -924 -6 -22 -31 -62 -55 -88 -78 -87 62 -80 -1661 -80 -1149 0 -1534 3
-1564 12 -22 6 -62 31 -88 55 -86 77 -80 -22 -80 1341 0 902 3 1215 12 1244
16 56 89 133 141 151 35 13 125 16 544 16 l502 1 171 -254z"/>
<path d="M2905 2304 c-16 -8 -125 -109 -240 -225 l-210 -209 -100 100 c-55 55
-118 109 -141 120 -103 50 -233 -8 -264 -118 -13 -46 -12 -58 1 -107 9 -32 47
-76 202 -232 105 -106 205 -199 223 -208 44 -21 110 -19 158 5 27 12 147 125
333 312 302 304 313 318 313 399 0 45 -46 122 -92 152 -49 32 -133 37 -183 11z"/>
</g>
</svg>
