<svg width="24" height="24" viewBox="0 0 24 24" fill="none" xmlns="http://www.w3.org/2000/svg">
<path fill-rule="evenodd" clip-rule="evenodd" d="M9.00125 16.4981C9.00125 17.3262 8.32996 17.9975 7.50188 17.9975C6.6738 17.9975 6.0025 17.3262 6.0025 16.4981C6.0025 15.67 6.6738 14.9987 7.50188 14.9987C8.32996 14.9987 9.00125 15.67 9.00125 16.4981" fill="#30353C"/>
<path d="M9.00125 16.4981C9.00125 17.3262 8.32996 17.9975 7.50188 17.9975C6.6738 17.9975 6.0025 17.3262 6.0025 16.4981C6.0025 15.67 6.6738 14.9987 7.50188 14.9987C8.32996 14.9987 9.00125 15.67 9.00125 16.4981" stroke="#30353C" stroke-width="1.5" stroke-linecap="round" stroke-linejoin="round"/>
<path fill-rule="evenodd" clip-rule="evenodd" d="M17.9975 16.4981C17.9975 17.3262 17.3262 17.9975 16.4981 17.9975C15.67 17.9975 14.9987 17.3262 14.9987 16.4981C14.9987 15.67 15.67 14.9987 16.4981 14.9987C17.3262 14.9987 17.9975 15.67 17.9975 16.4981" fill="#30353C"/>
<path d="M17.9975 16.4981C17.9975 17.3262 17.3262 17.9975 16.4981 17.9975C15.67 17.9975 14.9987 17.3262 14.9987 16.4981C14.9987 15.67 15.67 14.9987 16.4981 14.9987C17.3262 14.9987 17.9975 15.67 17.9975 16.4981" stroke="#30353C" stroke-width="1.5" stroke-linecap="round" stroke-linejoin="round"/>
<path fill-rule="evenodd" clip-rule="evenodd" d="M17.9975 7.49938C17.9975 8.32746 17.3262 8.99875 16.4981 8.99875C15.67 8.99875 14.9987 8.32746 14.9987 7.49938C14.9987 6.67129 15.67 6 16.4981 6C17.3262 6 17.9975 6.67129 17.9975 7.49938" fill="#30353C"/>
<path d="M17.9975 7.49938C17.9975 8.32746 17.3262 8.99875 16.4981 8.99875C15.67 8.99875 14.9987 8.32746 14.9987 7.49938C14.9987 6.67129 15.67 6 16.4981 6C17.3262 6 17.9975 6.67129 17.9975 7.49938" stroke="#30353C" stroke-width="1.5" stroke-linecap="round" stroke-linejoin="round"/>
<path fill-rule="evenodd" clip-rule="evenodd" d="M9.00125 7.49938C9.00125 8.32746 8.32996 8.99875 7.50188 8.99875C6.6738 8.99875 6.0025 8.32746 6.0025 7.49938C6.0025 6.67129 6.6738 6 7.50188 6C8.32996 6 9.00125 6.67129 9.00125 7.49938" fill="#30353C"/>
<path d="M9.00125 7.49938C9.00125 8.32746 8.32996 8.99875 7.50188 8.99875C6.6738 8.99875 6.0025 8.32746 6.0025 7.49938C6.0025 6.67129 6.6738 6 7.50188 6C8.32996 6 9.00125 6.67129 9.00125 7.49938" stroke="#30353C" stroke-width="1.5" stroke-linecap="round" stroke-linejoin="round"/>
</svg>
