<svg width="24" height="24" viewBox="0 0 24 24" fill="none" xmlns="http://www.w3.org/2000/svg">
<path d="M11.3148 16.1436H4.93063C4.49807 16.1436 4.17852 15.7406 4.27704 15.3193L5.06446 11.9542C5.13559 11.6504 5.4064 11.4357 5.71805 11.4357H10.3306C10.6288 11.4357 10.8912 11.6325 10.9749 11.9186L11.9591 15.2838C12.0848 15.7137 11.7626 16.1436 11.3148 16.1436Z" fill="#FCD535"/>
<path d="M19.0422 16.1436H12.658C12.2255 16.1436 11.9059 15.7406 12.0045 15.3193L12.7919 11.9542C12.863 11.6504 13.1338 11.4357 13.4455 11.4357H18.058C18.3562 11.4357 18.6186 11.6325 18.7024 11.9186L19.6866 15.2838C19.8122 15.7137 19.49 16.1436 19.0422 16.1436Z" fill="#FCD535"/>
<path d="M7.45095 20.8515H1.0668C0.634236 20.8515 0.314687 20.4484 0.413212 20.0272L1.20063 16.6621C1.27176 16.3583 1.54257 16.1436 1.85422 16.1436H6.46674C6.76495 16.1436 7.02734 16.3404 7.11111 16.6265L8.09531 19.9916C8.22097 20.4213 7.89879 20.8515 7.45095 20.8515Z" fill="#E5C230"/>
<path d="M15.1786 20.8515H8.79446C8.3619 20.8515 8.04235 20.4484 8.14087 20.0272L8.92829 16.6621C8.99942 16.3583 9.27023 16.1436 9.58188 16.1436H14.1944C14.4926 16.1436 14.755 16.3404 14.8388 16.6265L15.823 19.9916C15.9486 20.4213 15.6262 20.8515 15.1786 20.8515Z" fill="#E5C230"/>
<path d="M22.906 20.8515H16.5219C16.0893 20.8515 15.7698 20.4484 15.8683 20.0272L16.6557 16.6621C16.7268 16.3583 16.9976 16.1436 17.3093 16.1436H21.9218C22.22 16.1436 22.4824 16.3404 22.5662 16.6265L23.5504 19.9916C23.6761 20.4213 23.3539 20.8515 22.906 20.8515Z" fill="#E5C230"/>
<path d="M15.5258 7.41223C15.5258 9.36751 13.9408 10.9526 11.9855 10.9526C10.0302 10.9526 8.44516 9.36751 8.44516 7.41223C8.44516 5.45695 10.0302 3.87189 11.9855 3.87189C13.9408 3.87189 15.5258 5.45695 15.5258 7.41223Z" fill="#FCD535" stroke="#E5C230" stroke-width="1.5"/>
</svg>
