<svg width="24" height="24" viewBox="0 0 24 24" fill="none" xmlns="http://www.w3.org/2000/svg">
<path d="M17.5399 8.31014C18.8986 8.31014 20 7.20876 20 5.85014C20 4.49152 18.8986 3.39014 17.5399 3.39014C16.1813 3.39014 15.08 4.49152 15.08 5.85014C15.08 7.20876 16.1813 8.31014 17.5399 8.31014Z" stroke="#186ADE" stroke-width="1.5" stroke-miterlimit="10" stroke-linecap="round" stroke-linejoin="round"/>
<path d="M6.46001 8.31014C7.81863 8.31014 8.92 7.20876 8.92 5.85014C8.92 4.49152 7.81863 3.39014 6.46001 3.39014C5.10139 3.39014 4 4.49152 4 5.85014C4 7.20876 5.10139 8.31014 6.46001 8.31014Z" stroke="#186ADE" stroke-width="1.5" stroke-miterlimit="10" stroke-linecap="round" stroke-linejoin="round"/>
<path d="M17.5399 20.6099C18.8986 20.6099 20 19.5086 20 18.1499C20 16.7913 18.8986 15.6899 17.5399 15.6899C16.1813 15.6899 15.08 16.7913 15.08 18.1499C15.08 19.5086 16.1813 20.6099 17.5399 20.6099Z" stroke="#186ADE" stroke-width="1.5" stroke-miterlimit="10" stroke-linecap="round" stroke-linejoin="round"/>
<path d="M6.46001 20.6099C7.81863 20.6099 8.92 19.5086 8.92 18.1499C8.92 16.7913 7.81863 15.6899 6.46001 15.6899C5.10139 15.6899 4 16.7913 4 18.1499C4 19.5086 5.10139 20.6099 6.46001 20.6099Z" stroke="#186ADE" stroke-width="1.5" stroke-miterlimit="10" stroke-linecap="round" stroke-linejoin="round"/>
</svg>
