<svg width="56" height="56" viewBox="0 0 56 56" fill="none" xmlns="http://www.w3.org/2000/svg">
<path d="M24.9365 10.1689H4V6.82183C4 4.15805 6.15952 1.99854 8.8233 1.99854H24.9365V10.1689Z" fill="#9DA6B2"/>
<path d="M8.82422 2.00339C11.5457 2.11854 13.1918 4.30231 13.1918 7.10499V47.246C13.1918 51.0228 15.5428 54.0843 19.3195 54.0843H43.8305L47.9156 51.0348V7.78057C47.9156 4.58725 45.3269 1.99854 42.1336 1.99854H9.10661L8.82422 2.00339Z" fill="#D5D9DD"/>
<path d="M19.3187 54.0843H47.1203C49.8152 54.0843 52 51.8995 52 49.2046V46.9353H24.4252V48.4672C24.4252 51.444 22.1097 53.8798 19.1816 54.0721L19.3187 54.0843Z" fill="#9DA6B2"/>
<rect x="23.2764" y="20.3079" width="14.4987" height="1.93316" rx="0.966578" fill="white"/>
<rect x="23.2764" y="25.1409" width="14.4987" height="1.93316" rx="0.966578" fill="white"/>
<rect x="23.2764" y="29.9739" width="14.4987" height="1.93316" rx="0.966578" fill="white"/>
</svg>
