<?xml version="1.0" standalone="no"?>
<!DOCTYPE svg PUBLIC "-//W3C//DTD SVG 20010904//EN"
 "http://www.w3.org/TR/2001/REC-SVG-20010904/DTD/svg10.dtd">
<svg version="1.0" xmlns="http://www.w3.org/2000/svg"
 width="512.000000pt" height="512.000000pt" viewBox="0 0 512.000000 512.000000"
 preserveAspectRatio="xMidYMid meet">

<g transform="translate(0.000000,512.000000) scale(0.100000,-0.100000)"
fill="#000000" stroke="none">
<path d="M1008 5091 l-33 -29 -3 -196 -3 -195 -195 -3 -196 -3 -29 -33 -29
-32 0 -194 0 -193 -112 -5 c-90 -4 -122 -9 -154 -26 -63 -32 -102 -70 -132
-126 l-27 -51 -3 -539 c-3 -629 -5 -615 82 -701 66 -67 121 -85 253 -85 l93 0
0 -1110 c0 -838 3 -1115 12 -1135 26 -58 -66 -55 1593 -55 l1527 0 186 -180
c206 -199 229 -213 303 -191 33 10 110 81 451 419 225 224 417 420 425 436 19
36 12 99 -14 135 -37 50 -75 61 -220 61 l-132 0 -3 553 c-3 610 -1 584 -69
662 -35 40 -118 85 -156 85 l-23 0 0 1017 0 1018 -363 362 -362 363 -1317 0
-1318 0 -32 -29z m2532 -473 l0 -302 27 -28 27 -28 303 0 303 0 0 -950 0 -950
-222 0 c-212 0 -225 -1 -273 -24 -28 -12 -65 -40 -84 -61 -68 -78 -66 -52 -69
-662 l-3 -553 -130 0 c-93 0 -140 -4 -166 -15 -31 -13 -172 -15 -1059 -15
l-1024 0 0 825 0 825 755 0 c733 0 756 1 808 20 67 25 122 77 153 144 l24 51
0 550 0 550 -24 50 c-12 28 -42 67 -66 88 -84 76 -27 72 -882 75 l-768 3 0
354 0 355 1185 0 1185 0 0 -302z m360 -3 l155 -155 -158 0 -157 0 0 155 c0 85
1 155 3 155 1 0 72 -70 157 -155z m-2930 -275 l0 -130 -125 0 -125 0 0 130 0
130 125 0 125 0 0 -130z m1714 -351 l26 -20 0 -524 0 -524 -26 -20 c-27 -21
-28 -21 -1186 -21 l-1159 0 -24 25 -25 24 0 514 c0 540 -1 530 45 555 14 8
357 11 1171 12 1150 0 1151 0 1178 -21z m-1714 -2189 c0 -768 2 -885 15 -910
33 -63 -31 -60 1147 -60 l1073 0 125 -125 125 -125 -1368 0 -1367 0 0 1050 0
1050 125 0 125 0 0 -880z m3464 338 c14 -20 16 -95 16 -616 0 -388 4 -600 10
-613 20 -37 63 -49 177 -50 l108 0 -320 -314 c-176 -173 -323 -314 -327 -312
-3 1 -149 141 -324 312 l-317 310 122 5 c119 5 123 6 147 33 l24 28 0 597 c0
525 2 600 16 620 15 22 16 22 334 22 318 0 319 0 334 -22z"/>
<path d="M1973 2173 c-12 -2 -34 -18 -48 -34 -35 -43 -34 -92 4 -130 l29 -29
592 0 591 0 24 24 c47 47 43 112 -9 150 -27 21 -38 21 -594 22 -312 1 -577 0
-589 -3z"/>
<path d="M1973 1713 c-12 -2 -34 -18 -48 -34 -35 -43 -34 -92 4 -130 l29 -29
592 0 591 0 24 24 c47 47 43 112 -9 150 -27 21 -38 21 -594 22 -312 1 -577 0
-589 -3z"/>
<path d="M569 3832 l-34 -30 -3 -341 c-2 -295 -1 -346 13 -375 30 -62 107 -75
156 -27 29 29 29 30 29 155 l0 126 70 0 c147 0 240 43 292 136 54 98 44 208
-28 292 -66 78 -94 86 -290 90 l-172 4 -33 -30z m341 -192 c27 -27 25 -55 -7
-80 -22 -17 -38 -20 -97 -18 l-71 3 -3 58 -3 57 81 0 c67 0 83 -3 100 -20z"/>
<path d="M1247 3839 c-45 -35 -49 -69 -45 -422 l3 -329 33 -29 32 -29 163 0
c89 0 180 5 202 11 53 14 136 99 153 155 8 27 12 114 12 255 0 194 -2 218 -21
259 -27 60 -64 98 -124 126 -46 22 -62 24 -216 24 -153 0 -168 -2 -192 -21z
m341 -191 c17 -17 17 -389 0 -406 -8 -8 -45 -12 -100 -12 l-88 0 0 215 0 215
88 0 c55 0 92 -4 100 -12z"/>
<path d="M1909 3831 l-29 -29 0 -357 0 -357 29 -29 c40 -40 89 -40 133 0 l33
29 3 125 4 125 105 4 c104 4 106 4 134 36 40 44 40 93 0 133 -29 28 -32 29
-135 29 l-106 0 0 60 0 60 155 0 c171 0 202 8 223 55 23 51 7 107 -39 131 -22
11 -78 14 -254 14 l-227 0 -29 -29z"/>
</g>
</svg>
