<svg width="24" height="24" viewBox="0 0 24 24" fill="none" xmlns="http://www.w3.org/2000/svg">
<path fill-rule="evenodd" clip-rule="evenodd" d="M12 22C17.5228 22 22 17.5228 22 12C22 6.47715 17.5228 2 12 2C6.47715 2 2 6.47715 2 12C2 17.5228 6.47715 22 12 22Z" fill="#30353C"/>
<path fill-rule="evenodd" clip-rule="evenodd" d="M9.651 14.346C11.834 16.53 14.6 17.922 16.245 16.284L16.644 15.885C17.176 15.354 17.102 14.474 16.484 14.045C16.095 13.774 15.677 13.483 15.215 13.158C14.737 12.822 14.082 12.875 13.667 13.286L13.216 13.734C12.657 13.38 12.104 12.925 11.59 12.412L11.588 12.41C11.075 11.897 10.62 11.343 10.266 10.784L10.714 10.333C11.126 9.919 11.177 9.263 10.842 8.785C10.516 8.323 10.225 7.905 9.955 7.516C9.526 6.899 8.646 6.825 8.115 7.356L7.716 7.755C6.079 9.4 7.47 12.164 9.653 14.349" fill="white"/>
</svg>
