<svg width="24" height="24" viewBox="0 0 24 24" fill="none" xmlns="http://www.w3.org/2000/svg">
<path d="M4.22 10.89V20.89" stroke="#30353C" stroke-width="1.5" stroke-linecap="round" stroke-linejoin="round"/>
<path d="M19.78 10.89V20.89" stroke="#30353C" stroke-width="1.5" stroke-linecap="round" stroke-linejoin="round"/>
<path d="M14.222 20.889V16.445C14.222 15.218 13.227 14.223 12 14.223C10.773 14.223 9.77802 15.218 9.77802 16.445V20.889" stroke="#30353C" stroke-width="1.5" stroke-linecap="round" stroke-linejoin="round"/>
<path d="M2 20.89H22" stroke="#30353C" stroke-width="1.5" stroke-linecap="round" stroke-linejoin="round"/>
<path fill-rule="evenodd" clip-rule="evenodd" d="M4.30101 10.889C2.60301 10.877 1.49601 9.19599 2.23201 7.74699L3.94701 4.36999C4.33801 3.59999 5.16001 3.11099 6.06201 3.11099H17.938C18.84 3.11099 19.662 3.59999 20.053 4.36999L21.769 7.74699C22.505 9.19599 21.398 10.877 19.7 10.889C18.283 10.889 17.134 9.92099 17.134 8.72599V8.67799C17.134 9.89899 15.985 10.889 14.568 10.889C13.151 10.889 12.002 9.89899 12.002 8.67799C12.002 9.89899 10.853 10.889 9.43601 10.889C8.01901 10.889 6.87001 9.89899 6.87001 8.67799V8.72599C6.86701 9.92099 5.71801 10.889 4.30101 10.889Z" stroke="#30353C" stroke-width="1.5" stroke-linecap="round" stroke-linejoin="round"/>
</svg>
