<svg width="24" height="24" viewBox="0 0 24 24" fill="none" xmlns="http://www.w3.org/2000/svg">
<path fill-rule="evenodd" clip-rule="evenodd" d="M7.99835 3.99665L9.29889 2.37098C9.48897 2.13388 9.77609 1.99582 10.0802 1.99582H13.9208C14.2249 1.99582 14.5121 2.13388 14.7021 2.37098L16.0017 3.99665V3.99665V4.99707C16.0017 5.5493 15.5535 5.99749 15.0013 5.99749H8.99877C8.44654 5.99749 7.99835 5.5493 7.99835 4.99707V3.99665V3.99665Z" stroke="#323232" stroke-width="1.5" stroke-linecap="round" stroke-linejoin="round"/>
<path d="M7.99834 3.99664H5.99751C4.89205 3.99664 3.99667 4.89202 3.99667 5.99748V19.0029C3.99667 20.1084 4.89205 21.0037 5.99751 21.0037H18.0025C19.108 21.0037 20.0033 20.1084 20.0033 19.0029V5.99748C20.0033 4.89202 19.108 3.99664 18.0025 3.99664H16.0017" stroke="#323232" stroke-width="1.5" stroke-linecap="round" stroke-linejoin="round"/>
<path d="M14.0008 12.5002L11.4998 15.0012L9.99918 13.5006" stroke="#323232" stroke-width="1.5" stroke-linecap="round" stroke-linejoin="round"/>
</svg>
