<svg width="24" height="24" viewBox="0 0 24 24" fill="none" xmlns="http://www.w3.org/2000/svg">
<path fill-rule="evenodd" clip-rule="evenodd" d="M3 14.5064V9.49355C3 7.80715 3.852 6.24812 5.236 5.39965L9.736 2.64267C11.135 1.78578 12.864 1.78578 14.263 2.64267L18.763 5.39965C20.148 6.24812 21 7.80715 21 9.49355V14.5064C21 16.1929 20.148 17.7519 18.764 18.6003L14.264 21.3573C12.865 22.2142 11.136 22.2142 9.737 21.3573L5.237 18.6003C3.852 17.7519 3 16.1929 3 14.5064Z" fill="#717F91"/>
<path fill-rule="evenodd" clip-rule="evenodd" d="M12 12V7.5V12Z" fill="#717F91"/>
<path d="M12 12V7.5" stroke="#F8F9FC" stroke-width="1.5" stroke-linecap="round" stroke-linejoin="round"/>
<path fill-rule="evenodd" clip-rule="evenodd" d="M11.999 15.5C11.861 15.5 11.749 15.612 11.75 15.75C11.75 15.888 11.862 16 12 16C12.138 16 12.25 15.888 12.25 15.75C12.25 15.612 12.138 15.5 11.999 15.5Z" fill="#717F91"/>
<path d="M11.999 15.5C11.861 15.5 11.749 15.612 11.75 15.75C11.75 15.888 11.862 16 12 16C12.138 16 12.25 15.888 12.25 15.75C12.25 15.612 12.138 15.5 11.999 15.5" stroke="#F8F9FC" stroke-width="1.5" stroke-linecap="round" stroke-linejoin="round"/>
</svg>
